<mxfile host="app.diagrams.net" modified="2021-10-30T08:48:24.139Z" agent="5.0 (Macintosh; Intel Mac OS X 10_15_7) AppleWebKit/537.36 (KHTML, like Gecko) Chrome/95.0.4638.54 Safari/537.36" etag="IStsx3Dq4_ZwgLzOnI-i" version="15.6.2" type="github">
  <diagram id="QzgkXA_fUVWW8URtOito" name="Page-1">
    <mxGraphModel dx="946" dy="558" grid="1" gridSize="10" guides="1" tooltips="1" connect="1" arrows="1" fold="1" page="1" pageScale="1" pageWidth="827" pageHeight="1169" math="0" shadow="0">
      <root>
        <mxCell id="0" />
        <mxCell id="1" parent="0" />
        <mxCell id="XxcNvxv74E-9oQHgmWy_-7" value="" style="rounded=0;whiteSpace=wrap;html=1;fontFamily=Comic Sans MS;" vertex="1" parent="1">
          <mxGeometry x="70" y="30" width="550" height="340" as="geometry" />
        </mxCell>
        <mxCell id="XxcNvxv74E-9oQHgmWy_-3" value="Function components" style="swimlane;fillColor=#f5f5f5;fontColor=#333333;strokeColor=#666666;fontFamily=Comic Sans MS;" vertex="1" parent="1">
          <mxGeometry x="130" y="120" width="200" height="190" as="geometry" />
        </mxCell>
        <mxCell id="XxcNvxv74E-9oQHgmWy_-9" value="&lt;span style=&quot;font-size: 22px&quot;&gt;UI&lt;/span&gt;" style="rounded=0;whiteSpace=wrap;html=1;fontFamily=Comic Sans MS;" vertex="1" parent="1">
          <mxGeometry x="460" y="80" width="80" height="240" as="geometry" />
        </mxCell>
      </root>
    </mxGraphModel>
  </diagram>
</mxfile>
